<mxfile host="app.diagrams.net" agent="Mozilla/5.0 (Windows NT 10.0; Win64; x64) AppleWebKit/537.36 (KHTML, like Gecko) Chrome/133.0.0.0 Safari/537.36" version="26.0.16">
  <diagram name="Página-1" id="8YllAwou6_c3kiFdNntu">
    <mxGraphModel dx="1050" dy="546" grid="1" gridSize="10" guides="1" tooltips="1" connect="1" arrows="1" fold="1" page="1" pageScale="1" pageWidth="827" pageHeight="1169" math="0" shadow="0">
      <root>
        <mxCell id="0" />
        <mxCell id="1" parent="0" />
        <mxCell id="s1OQxdQYf-fvayV1Pkc8-10" style="edgeStyle=orthogonalEdgeStyle;rounded=0;orthogonalLoop=1;jettySize=auto;html=1;entryX=0;entryY=0.5;entryDx=0;entryDy=0;" edge="1" parent="1" source="s1OQxdQYf-fvayV1Pkc8-1" target="s1OQxdQYf-fvayV1Pkc8-4">
          <mxGeometry relative="1" as="geometry" />
        </mxCell>
        <mxCell id="s1OQxdQYf-fvayV1Pkc8-1" value="&lt;font style=&quot;vertical-align: inherit;&quot;&gt;&lt;font style=&quot;vertical-align: inherit;&quot;&gt;Pessoa&lt;/font&gt;&lt;/font&gt;&lt;div&gt;&lt;font style=&quot;vertical-align: inherit;&quot;&gt;&lt;font style=&quot;vertical-align: inherit;&quot;&gt;&lt;br&gt;&lt;/font&gt;&lt;/font&gt;&lt;/div&gt;" style="rounded=0;whiteSpace=wrap;html=1;" vertex="1" parent="1">
          <mxGeometry x="90" y="160" width="100" height="40" as="geometry" />
        </mxCell>
        <mxCell id="s1OQxdQYf-fvayV1Pkc8-8" style="edgeStyle=orthogonalEdgeStyle;rounded=0;orthogonalLoop=1;jettySize=auto;html=1;entryX=0.5;entryY=0;entryDx=0;entryDy=0;" edge="1" parent="1" source="s1OQxdQYf-fvayV1Pkc8-2" target="s1OQxdQYf-fvayV1Pkc8-4">
          <mxGeometry relative="1" as="geometry" />
        </mxCell>
        <mxCell id="s1OQxdQYf-fvayV1Pkc8-2" value="&lt;div&gt;&lt;font style=&quot;vertical-align: inherit;&quot;&gt;&lt;font style=&quot;vertical-align: inherit;&quot;&gt;&lt;font style=&quot;vertical-align: inherit;&quot;&gt;&lt;font style=&quot;vertical-align: inherit;&quot;&gt;Banco&lt;/font&gt;&lt;/font&gt;&lt;/font&gt;&lt;/font&gt;&lt;/div&gt;" style="rounded=0;whiteSpace=wrap;html=1;" vertex="1" parent="1">
          <mxGeometry x="354" y="70" width="120" height="60" as="geometry" />
        </mxCell>
        <mxCell id="s1OQxdQYf-fvayV1Pkc8-9" style="edgeStyle=orthogonalEdgeStyle;rounded=0;orthogonalLoop=1;jettySize=auto;html=1;entryX=1;entryY=0.5;entryDx=0;entryDy=0;" edge="1" parent="1" source="s1OQxdQYf-fvayV1Pkc8-3" target="s1OQxdQYf-fvayV1Pkc8-4">
          <mxGeometry relative="1" as="geometry" />
        </mxCell>
        <mxCell id="s1OQxdQYf-fvayV1Pkc8-3" value="&lt;font style=&quot;vertical-align: inherit;&quot;&gt;&lt;font style=&quot;vertical-align: inherit;&quot;&gt;Companhia&lt;/font&gt;&lt;/font&gt;" style="rounded=0;whiteSpace=wrap;html=1;" vertex="1" parent="1">
          <mxGeometry x="640" y="160" width="100" height="40" as="geometry" />
        </mxCell>
        <mxCell id="s1OQxdQYf-fvayV1Pkc8-12" style="edgeStyle=orthogonalEdgeStyle;rounded=0;orthogonalLoop=1;jettySize=auto;html=1;entryX=0.5;entryY=0;entryDx=0;entryDy=0;" edge="1" parent="1" source="s1OQxdQYf-fvayV1Pkc8-4" target="s1OQxdQYf-fvayV1Pkc8-11">
          <mxGeometry relative="1" as="geometry" />
        </mxCell>
        <mxCell id="s1OQxdQYf-fvayV1Pkc8-4" value="&lt;font style=&quot;vertical-align: inherit;&quot;&gt;&lt;font style=&quot;vertical-align: inherit;&quot;&gt;u&lt;/font&gt;&lt;/font&gt;" style="ellipse;whiteSpace=wrap;html=1;aspect=fixed;" vertex="1" parent="1">
          <mxGeometry x="374" y="200" width="80" height="80" as="geometry" />
        </mxCell>
        <mxCell id="s1OQxdQYf-fvayV1Pkc8-11" value="&lt;font style=&quot;vertical-align: inherit;&quot;&gt;&lt;font style=&quot;vertical-align: inherit;&quot;&gt;Owner&lt;/font&gt;&lt;/font&gt;" style="rounded=0;whiteSpace=wrap;html=1;" vertex="1" parent="1">
          <mxGeometry x="354" y="360" width="120" height="60" as="geometry" />
        </mxCell>
        <mxCell id="s1OQxdQYf-fvayV1Pkc8-17" style="edgeStyle=orthogonalEdgeStyle;rounded=0;orthogonalLoop=1;jettySize=auto;html=1;" edge="1" parent="1" source="s1OQxdQYf-fvayV1Pkc8-13" target="s1OQxdQYf-fvayV1Pkc8-1">
          <mxGeometry relative="1" as="geometry" />
        </mxCell>
        <mxCell id="s1OQxdQYf-fvayV1Pkc8-13" value="&lt;font style=&quot;vertical-align: inherit;&quot;&gt;&lt;font style=&quot;vertical-align: inherit;&quot;&gt;Licença&lt;/font&gt;&lt;/font&gt;" style="ellipse;whiteSpace=wrap;html=1;align=center;fontStyle=4;" vertex="1" parent="1">
          <mxGeometry y="140" width="60" height="30" as="geometry" />
        </mxCell>
        <mxCell id="s1OQxdQYf-fvayV1Pkc8-18" style="edgeStyle=orthogonalEdgeStyle;rounded=0;orthogonalLoop=1;jettySize=auto;html=1;" edge="1" parent="1" source="s1OQxdQYf-fvayV1Pkc8-14">
          <mxGeometry relative="1" as="geometry">
            <mxPoint x="90" y="195" as="targetPoint" />
          </mxGeometry>
        </mxCell>
        <mxCell id="s1OQxdQYf-fvayV1Pkc8-14" value="&lt;font style=&quot;vertical-align: inherit;&quot;&gt;&lt;font style=&quot;vertical-align: inherit;&quot;&gt;&lt;font style=&quot;vertical-align: inherit;&quot;&gt;&lt;font style=&quot;vertical-align: inherit;&quot;&gt;CPF&lt;/font&gt;&lt;/font&gt;&lt;/font&gt;&lt;/font&gt;" style="ellipse;whiteSpace=wrap;html=1;align=center;fontStyle=4;" vertex="1" parent="1">
          <mxGeometry y="180" width="60" height="30" as="geometry" />
        </mxCell>
        <mxCell id="s1OQxdQYf-fvayV1Pkc8-15" value="&lt;font style=&quot;vertical-align: inherit;&quot;&gt;&lt;font style=&quot;vertical-align: inherit;&quot;&gt;Nome&lt;/font&gt;&lt;/font&gt;" style="ellipse;whiteSpace=wrap;html=1;align=center;" vertex="1" parent="1">
          <mxGeometry x="40" y="100" width="60" height="30" as="geometry" />
        </mxCell>
        <mxCell id="s1OQxdQYf-fvayV1Pkc8-16" value="&lt;font style=&quot;vertical-align: inherit;&quot;&gt;&lt;font style=&quot;vertical-align: inherit;&quot;&gt;Endereço&lt;/font&gt;&lt;/font&gt;" style="ellipse;whiteSpace=wrap;html=1;align=center;" vertex="1" parent="1">
          <mxGeometry x="120" y="100" width="60" height="30" as="geometry" />
        </mxCell>
        <mxCell id="s1OQxdQYf-fvayV1Pkc8-19" style="edgeStyle=orthogonalEdgeStyle;rounded=0;orthogonalLoop=1;jettySize=auto;html=1;entryX=0.168;entryY=-0.09;entryDx=0;entryDy=0;entryPerimeter=0;" edge="1" parent="1" source="s1OQxdQYf-fvayV1Pkc8-15" target="s1OQxdQYf-fvayV1Pkc8-1">
          <mxGeometry relative="1" as="geometry" />
        </mxCell>
        <mxCell id="s1OQxdQYf-fvayV1Pkc8-20" style="edgeStyle=orthogonalEdgeStyle;rounded=0;orthogonalLoop=1;jettySize=auto;html=1;exitX=0.5;exitY=1;exitDx=0;exitDy=0;entryX=0.624;entryY=0.09;entryDx=0;entryDy=0;entryPerimeter=0;" edge="1" parent="1" source="s1OQxdQYf-fvayV1Pkc8-16" target="s1OQxdQYf-fvayV1Pkc8-1">
          <mxGeometry relative="1" as="geometry" />
        </mxCell>
        <mxCell id="s1OQxdQYf-fvayV1Pkc8-21" value="&lt;font style=&quot;vertical-align: inherit;&quot;&gt;&lt;font style=&quot;vertical-align: inherit;&quot;&gt;bNome&lt;/font&gt;&lt;/font&gt;" style="ellipse;whiteSpace=wrap;html=1;align=center;fontStyle=4;" vertex="1" parent="1">
          <mxGeometry x="340" y="10" width="70" height="30" as="geometry" />
        </mxCell>
        <mxCell id="s1OQxdQYf-fvayV1Pkc8-22" value="&lt;font style=&quot;vertical-align: inherit;&quot;&gt;&lt;font style=&quot;vertical-align: inherit;&quot;&gt;bEndereço&lt;/font&gt;&lt;/font&gt;" style="ellipse;whiteSpace=wrap;html=1;align=center;" vertex="1" parent="1">
          <mxGeometry x="430" y="10" width="70" height="30" as="geometry" />
        </mxCell>
        <mxCell id="s1OQxdQYf-fvayV1Pkc8-23" style="edgeStyle=orthogonalEdgeStyle;rounded=0;orthogonalLoop=1;jettySize=auto;html=1;entryX=0.173;entryY=0.067;entryDx=0;entryDy=0;entryPerimeter=0;" edge="1" parent="1" source="s1OQxdQYf-fvayV1Pkc8-21" target="s1OQxdQYf-fvayV1Pkc8-2">
          <mxGeometry relative="1" as="geometry" />
        </mxCell>
        <mxCell id="s1OQxdQYf-fvayV1Pkc8-24" style="edgeStyle=orthogonalEdgeStyle;rounded=0;orthogonalLoop=1;jettySize=auto;html=1;entryX=0.893;entryY=0.013;entryDx=0;entryDy=0;entryPerimeter=0;" edge="1" parent="1" source="s1OQxdQYf-fvayV1Pkc8-22" target="s1OQxdQYf-fvayV1Pkc8-2">
          <mxGeometry relative="1" as="geometry" />
        </mxCell>
        <mxCell id="s1OQxdQYf-fvayV1Pkc8-28" style="edgeStyle=orthogonalEdgeStyle;rounded=0;orthogonalLoop=1;jettySize=auto;html=1;entryX=0.75;entryY=0;entryDx=0;entryDy=0;" edge="1" parent="1" source="s1OQxdQYf-fvayV1Pkc8-25" target="s1OQxdQYf-fvayV1Pkc8-3">
          <mxGeometry relative="1" as="geometry" />
        </mxCell>
        <mxCell id="s1OQxdQYf-fvayV1Pkc8-25" value="&lt;font style=&quot;vertical-align: inherit;&quot;&gt;&lt;font style=&quot;vertical-align: inherit;&quot;&gt;cNome&lt;/font&gt;&lt;/font&gt;" style="ellipse;whiteSpace=wrap;html=1;align=center;fontStyle=4;" vertex="1" parent="1">
          <mxGeometry x="750" y="120" width="63" height="30" as="geometry" />
        </mxCell>
        <mxCell id="s1OQxdQYf-fvayV1Pkc8-27" style="edgeStyle=orthogonalEdgeStyle;rounded=0;orthogonalLoop=1;jettySize=auto;html=1;entryX=0.75;entryY=1;entryDx=0;entryDy=0;" edge="1" parent="1" source="s1OQxdQYf-fvayV1Pkc8-26" target="s1OQxdQYf-fvayV1Pkc8-3">
          <mxGeometry relative="1" as="geometry" />
        </mxCell>
        <mxCell id="s1OQxdQYf-fvayV1Pkc8-26" value="&lt;font style=&quot;vertical-align: inherit;&quot;&gt;&lt;font style=&quot;vertical-align: inherit;&quot;&gt;cEndereço&lt;/font&gt;&lt;/font&gt;" style="ellipse;whiteSpace=wrap;html=1;align=center;" vertex="1" parent="1">
          <mxGeometry x="757" y="210" width="70" height="30" as="geometry" />
        </mxCell>
      </root>
    </mxGraphModel>
  </diagram>
</mxfile>
